<svg xmlns="http://www.w3.org/2000/svg" viewBox="0 0 16 16" width="16" height="16">
  <defs>
    <linearGradient id="cloudGradient16" x1="0%" y1="0%" x2="100%" y2="100%">
      <stop offset="0%" style="stop-color:#0078d4;stop-opacity:1" />
      <stop offset="50%" style="stop-color:#106ebe;stop-opacity:1" />
      <stop offset="100%" style="stop-color:#005a9e;stop-opacity:1" />
    </linearGradient>
  </defs>
  
  <!-- Background circle -->
  <circle cx="8" cy="8" r="7.5" fill="url(#cloudGradient16)" stroke="#004578" stroke-width="1"/>
  
  <!-- Cloud shape simplified for 16px -->
  <path d="M4 10c-1.1 0-2-0.9-2-2 0-0.8 0.5-1.5 1.2-1.8C3.4 5.3 4.1 4.5 5 4.5c0.7 0 1.3 0.4 1.6 1 0.2 0 0.4 0 0.6 0 1.4 0 2.5 1.1 2.5 2.5 0 0.2 0 0.4-0.1 0.6 0.6 0.3 1 0.9 1 1.6 0 1-0.8 1.8-1.8 1.8H4z" fill="rgba(255,255,255,0.2)"/>
  
  <!-- Letter "J" -->
  <text x="8" y="11" font-family="Arial, sans-serif" font-size="8" font-weight="bold" text-anchor="middle" fill="white">J</text>
  
  <!-- Small tech dots -->
  <circle cx="5" cy="4" r="0.4" fill="rgba(255,255,255,0.3)"/>
  <circle cx="11" cy="5" r="0.3" fill="rgba(255,255,255,0.25)"/>
  <circle cx="13" cy="9" r="0.35" fill="rgba(255,255,255,0.3)"/>
</svg>
