<svg xmlns="http://www.w3.org/2000/svg" viewBox="0 0 32 32" width="32" height="32">
  <defs>
    <linearGradient id="cloudGradient32" x1="0%" y1="0%" x2="100%" y2="100%">
      <stop offset="0%" style="stop-color:#0078d4;stop-opacity:1" />
      <stop offset="50%" style="stop-color:#106ebe;stop-opacity:1" />
      <stop offset="100%" style="stop-color:#005a9e;stop-opacity:1" />
    </linearGradient>
    <linearGradient id="letterGradient32" x1="0%" y1="0%" x2="100%" y2="100%">
      <stop offset="0%" style="stop-color:#ffffff;stop-opacity:1" />
      <stop offset="100%" style="stop-color:#e3f2fd;stop-opacity:1" />
    </linearGradient>
  </defs>
  
  <!-- Background circle -->
  <circle cx="16" cy="16" r="15" fill="url(#cloudGradient32)" stroke="#004578" stroke-width="2"/>
  
  <!-- Cloud shape -->
  <path d="M8 20c-2.2 0-4-1.8-4-4 0-1.6 0.9-3 2.4-3.7C6.7 10.6 8.2 9 10.1 9c1.4 0 2.6 0.8 3.2 2 0.3-0.1 0.7-0.1 1.1-0.1 2.8 0 5.1 2.3 5.1 5.1 0 0.4-0.1 0.8-0.2 1.2 1.2 0.6 2 1.9 2 3.3 0 2.1-1.7 3.8-3.8 3.8H8z" fill="rgba(255,255,255,0.2)" stroke="rgba(255,255,255,0.4)" stroke-width="0.5"/>
  
  <!-- Letter "J" -->
  <text x="16" y="22" font-family="Arial, sans-serif" font-size="16" font-weight="bold" text-anchor="middle" fill="url(#letterGradient32)">J</text>
  
  <!-- Small tech dots for texture -->
  <circle cx="10" cy="8" r="0.8" fill="rgba(255,255,255,0.3)"/>
  <circle cx="22" cy="10" r="0.6" fill="rgba(255,255,255,0.25)"/>
  <circle cx="6" cy="14" r="0.5" fill="rgba(255,255,255,0.2)"/>
  <circle cx="26" cy="18" r="0.7" fill="rgba(255,255,255,0.3)"/>
</svg>
